<svg xmlns="http://www.w3.org/2000/svg" width="800" height="450" viewBox="0 0 800 450">
  <defs>
    <linearGradient id="bg" x1="0" y1="0" x2="0.5" y2="1">
      <stop offset="0%" stop-color="#f0f4ff"/>
      <stop offset="100%" stop-color="#e8f0fe"/>
    </linearGradient>
  </defs>

  <rect width="800" height="450" rx="12" fill="url(#bg)"/>

  <!-- Browser chrome -->
  <rect width="800" height="36" rx="12" fill="#fff"/>
  <rect y="24" width="800" height="12" fill="#fff"/>
  <circle cx="18" cy="14" r="5" fill="#ff5f57"/>
  <circle cx="36" cy="14" r="5" fill="#febc2e"/>
  <circle cx="54" cy="14" r="5" fill="#28c840"/>
  <rect x="200" y="6" width="400" height="20" rx="10" fill="#f1f3f5"/>
  <text x="345" y="20" font-family="system-ui" font-size="10" fill="#9ca3af">localhost:3000</text>

  <!-- Header -->
  <rect y="36" width="800" height="56" fill="#fff"/>
  <line x1="0" y1="91" x2="800" y2="91" stroke="#e5e7eb"/>
  <text x="40" y="72" font-family="Inter,system-ui,sans-serif" font-size="18" font-weight="700" fill="#1E40ED">✅ Todo App</text>
  <rect x="620" y="56" width="60" height="28" rx="6" fill="#1E40ED"/>
  <text x="634" y="75" font-family="system-ui" font-size="11" fill="#fff">登录</text>
  <rect x="690" y="56" width="70" height="28" rx="6" fill="none" stroke="#1E40ED"/>
  <text x="700" y="75" font-family="system-ui" font-size="11" fill="#1E40ED">注册</text>

  <!-- Sidebar -->
  <rect y="92" width="200" height="358" fill="#fff"/>
  <line x1="200" y1="92" x2="200" y2="450" stroke="#e5e7eb"/>
  <rect x="16" y="108" width="168" height="36" rx="8" fill="#eff6ff"/>
  <text x="40" y="131" font-family="system-ui" font-size="12" font-weight="600" fill="#1E40ED">📋 所有任务</text>
  <rect x="16" y="152" width="168" height="36" rx="8" fill="transparent"/>
  <text x="40" y="175" font-family="system-ui" font-size="12" fill="#6b7280">🔴 紧急</text>
  <rect x="16" y="196" width="168" height="36" rx="8" fill="transparent"/>
  <text x="40" y="219" font-family="system-ui" font-size="12" fill="#6b7280">🟡 进行中</text>
  <rect x="16" y="240" width="168" height="36" rx="8" fill="transparent"/>
  <text x="40" y="263" font-family="system-ui" font-size="12" fill="#6b7280">🟢 已完成</text>

  <!-- Main content -->
  <rect x="220" y="108" width="560" height="40" rx="8" fill="#fff" stroke="#e5e7eb"/>
  <text x="240" y="133" font-family="system-ui" font-size="13" fill="#9ca3af">添加新任务...</text>
  <rect x="720" y="114" width="48" height="28" rx="6" fill="#1E40ED"/>
  <text x="732" y="133" font-family="system-ui" font-size="11" fill="#fff">添加</text>

  <!-- Todo item 1 - completed -->
  <rect x="220" y="162" width="560" height="56" rx="8" fill="#fff" stroke="#e5e7eb"/>
  <circle cx="244" cy="190" r="10" fill="#22c55e"/>
  <text x="242" y="195" font-family="system-ui" font-size="12" fill="#fff">✓</text>
  <text x="264" y="186" font-family="system-ui" font-size="13" fill="#9ca3af" text-decoration="line-through">完成项目首页设计</text>
  <rect x="640" y="178" width="44" height="20" rx="4" fill="#dcfce7"/>
  <text x="648" y="192" font-family="system-ui" font-size="9" fill="#16a34a">已完成</text>

  <!-- Todo item 2 -->
  <rect x="220" y="228" width="560" height="56" rx="8" fill="#fff" stroke="#e5e7eb"/>
  <circle cx="244" cy="256" r="10" fill="none" stroke="#d1d5db"/>
  <text x="264" y="252" font-family="system-ui" font-size="13" fill="#1f2937" font-weight="500">实现用户认证模块</text>
  <text x="264" y="270" font-family="system-ui" font-size="10" fill="#6b7280">截止：2026-06-15</text>
  <rect x="640" y="244" width="44" height="20" rx="4" fill="#fef9c3"/>
  <text x="648" y="258" font-family="system-ui" font-size="9" fill="#ca8a04">进行中</text>

  <!-- Todo item 3 -->
  <rect x="220" y="294" width="560" height="56" rx="8" fill="#fff" stroke="#e5e7eb"/>
  <circle cx="244" cy="322" r="10" fill="none" stroke="#d1d5db"/>
  <text x="264" y="318" font-family="system-ui" font-size="13" fill="#1f2937" font-weight="500">编写 API 接口文档</text>
  <text x="264" y="336" font-family="system-ui" font-size="10" fill="#6b7280">截止：2026-06-20</text>
  <rect x="640" y="310" width="44" height="20" rx="4" fill="#fee2e2"/>
  <text x="648" y="324" font-family="system-ui" font-size="9" fill="#dc2626">紧急</text>

  <!-- Todo item 4 -->
  <rect x="220" y="360" width="560" height="56" rx="8" fill="#fff" stroke="#e5e7eb"/>
  <circle cx="244" cy="388" r="10" fill="none" stroke="#d1d5db"/>
  <text x="264" y="384" font-family="system-ui" font-size="13" fill="#1f2937" font-weight="500">Docker 容器化部署</text>
  <text x="264" y="402" font-family="system-ui" font-size="10" fill="#6b7280">截止：2026-06-25</text>
  <rect x="640" y="376" width="44" height="20" rx="4" fill="#eff6ff"/>
  <text x="652" y="390" font-family="system-ui" font-size="9" fill="#1E40ED">待办</text>
</svg>
